<svg width="40" height="40" viewBox="0 0 40 40" fill="none" xmlns="http://www.w3.org/2000/svg">
<path d="M9.39453 35H19.1797V24.3359H15.6641V20.8203H19.1797V16.4258C19.1797 14.0026 21.151 12.0312 23.5742 12.0312H27.9688V15.5469H24.4531C23.4838 15.5469 22.6953 16.3354 22.6953 17.3047V20.8203H27.8101L27.2242 24.3359H22.6953V35H30.6055C33.0286 35 35 33.0286 35 30.6055V9.39453C35 6.97136 33.0286 5 30.6055 5H9.39453C6.97136 5 5 6.97136 5 9.39453V30.6055C5 33.0286 6.97136 35 9.39453 35ZM6.75781 9.39453C6.75781 7.94067 7.94067 6.75781 9.39453 6.75781H30.6055C32.0593 6.75781 33.2422 7.94067 33.2422 9.39453V30.6055C33.2422 32.0593 32.0593 33.2422 30.6055 33.2422H24.4531V26.0938H28.7133L29.8852 19.0625H24.4531V17.3047H29.7266V10.2734H23.5742C20.1817 10.2734 17.4219 13.0333 17.4219 16.4258V19.0625H13.9062V26.0938H17.4219V33.2422H9.39453C7.94067 33.2422 6.75781 32.0593 6.75781 30.6055V9.39453Z" fill="#F8C23E"/>
<rect x="1" y="1" width="38" height="38" stroke="#F8C23E" stroke-width="2"/>
</svg>
