<svg width="40" height="40" viewBox="0 0 40 40" fill="none" xmlns="http://www.w3.org/2000/svg">
<path d="M9.39453 35H30.6055C33.0286 35 35 33.0286 35 30.6055V9.39453C35 6.97136 33.0286 5 30.6055 5H9.39453C6.97136 5 5 6.97136 5 9.39453V30.6055C5 33.0286 6.97136 35 9.39453 35ZM6.75781 9.39453C6.75781 7.94067 7.94067 6.75781 9.39453 6.75781H30.6055C32.0593 6.75781 33.2422 7.94067 33.2422 9.39453V30.6055C33.2422 32.0593 32.0593 33.2422 30.6055 33.2422H9.39453C7.94067 33.2422 6.75781 32.0593 6.75781 30.6055V9.39453Z" fill="#F8C23E"/>
<path d="M20 27.9102C24.3616 27.9102 27.9102 24.3616 27.9102 20C27.9102 15.6384 24.3616 12.0898 20 12.0898C15.6384 12.0898 12.0898 15.6384 12.0898 20C12.0898 24.3616 15.6384 27.9102 20 27.9102ZM20 13.8477C23.3925 13.8477 26.1523 16.6075 26.1523 20C26.1523 23.3925 23.3925 26.1523 20 26.1523C16.6075 26.1523 13.8477 23.3925 13.8477 20C13.8477 16.6075 16.6075 13.8477 20 13.8477Z" fill="#F8C23E"/>
<path d="M28.7891 13.8477C30.2429 13.8477 31.4258 12.6648 31.4258 11.2109C31.4258 9.75708 30.2429 8.57422 28.7891 8.57422C27.3352 8.57422 26.1523 9.75708 26.1523 11.2109C26.1523 12.6648 27.3352 13.8477 28.7891 13.8477ZM28.7891 10.332C29.2736 10.332 29.668 10.7264 29.668 11.2109C29.668 11.6955 29.2736 12.0898 28.7891 12.0898C28.3045 12.0898 27.9102 11.6955 27.9102 11.2109C27.9102 10.7264 28.3045 10.332 28.7891 10.332Z" fill="#F8C23E"/>
<rect x="1" y="1" width="38" height="38" stroke="#F8C23E" stroke-width="2"/>
</svg>
