<svg width="40" height="40" viewBox="0 0 40 40" fill="none" xmlns="http://www.w3.org/2000/svg">
<path d="M9.39453 31.4258H30.6055C33.0286 31.4258 35 29.4544 35 27.0312V12.9688C35 10.5456 33.0286 8.57422 30.6055 8.57422H9.39453C6.97136 8.57422 5 10.5456 5 12.9688V27.0312C5 29.4544 6.97136 31.4258 9.39453 31.4258ZM6.75781 12.9688C6.75781 11.5149 7.94067 10.332 9.39453 10.332H30.6055C32.0593 10.332 33.2422 11.5149 33.2422 12.9688V27.0312C33.2422 28.4851 32.0593 29.668 30.6055 29.668H9.39453C7.94067 29.668 6.75781 28.4851 6.75781 27.0312V12.9688Z" fill="#F8C23E"/>
<path d="M15.6055 14.1118V26.059L26.1816 19.9874L15.6055 14.1118ZM17.3633 17.0992L22.6074 20.0126L17.3633 23.0231V17.0992Z" fill="#F8C23E"/>
<rect x="1" y="1" width="38" height="38" stroke="#F8C23E" stroke-width="2"/>
</svg>
