<?xml version="1.0" encoding="UTF-8" standalone="no"?>
<svg
   xmlns:dc="http://purl.org/dc/elements/1.1/"
   xmlns:cc="http://creativecommons.org/ns#"
   xmlns:rdf="http://www.w3.org/1999/02/22-rdf-syntax-ns#"
   xmlns:svg="http://www.w3.org/2000/svg"
   xmlns="http://www.w3.org/2000/svg"
   xmlns:sodipodi="http://sodipodi.sourceforge.net/DTD/sodipodi-0.dtd"
   xmlns:inkscape="http://www.inkscape.org/namespaces/inkscape"
   width="200pt"
   height="160pt"
   viewBox="0 0 200 160"
   version="1.2"
   id="svg12"
   sodipodi:docname="icone2.svg"
   inkscape:version="0.92.5 (2060ec1f9f, 2020-04-08)">
  <metadata
     id="metadata16">
    <rdf:RDF>
      <cc:Work
         rdf:about="">
        <dc:format>image/svg+xml</dc:format>
        <dc:type
           rdf:resource="http://purl.org/dc/dcmitype/StillImage" />
        <dc:title></dc:title>
      </cc:Work>
    </rdf:RDF>
  </metadata>
  <sodipodi:namedview
     pagecolor="#ffffff"
     bordercolor="#666666"
     borderopacity="1"
     objecttolerance="10"
     gridtolerance="10"
     guidetolerance="10"
     inkscape:pageopacity="0"
     inkscape:pageshadow="2"
     inkscape:window-width="1920"
     inkscape:window-height="1021"
     id="namedview14"
     showgrid="true"
     fit-margin-top="0"
     fit-margin-left="0"
     fit-margin-right="0"
     fit-margin-bottom="0"
     showguides="true"
     inkscape:guide-bbox="true"
     inkscape:zoom="1.888"
     inkscape:cx="147.48482"
     inkscape:cy="63.675768"
     inkscape:window-x="0"
     inkscape:window-y="27"
     inkscape:window-maximized="1"
     inkscape:current-layer="svg12">
    <inkscape:grid
       type="xygrid"
       id="grid18" />
  </sodipodi:namedview>
  <defs
     id="defs5">
    <clipPath
       id="clip1">
      <path
         d="m 131.8125,112.5 h 111.375 v 150 h -111.375 z m 0,0"
         id="path2"
         inkscape:connector-curvature="0" />
    </clipPath>
  </defs>
  <g
     id="surface1"
     transform="translate(-81.515617,-107.07812)">
    <g
       clip-path="url(#clip1)"
       id="g9"
       style="clip-rule:nonzero">
      <path
         style="fill:#f8c23d;fill-opacity:1;fill-rule:nonzero;stroke:none"
         d="m 146.63281,255.14453 c 0,1.33203 1.08594,2.41797 2.42188,2.41797 h 4.84765 c 1.33594,0 2.42578,-1.08594 2.42578,-2.41797 v -2.41406 h -9.69531 z m 63.02344,0 c 0,1.33203 1.08984,2.41797 2.42578,2.41797 h 4.84766 c 1.33593,0 2.42578,-1.08594 2.42578,-2.41797 v -2.41406 h -9.69922 z m 12.58594,-36.23828 h -26.63672 l -5.40625,8.08984 c 1.53515,1.70703 2.48828,3.9336 2.48828,6.40625 0,5.33203 -4.34375,9.66407 -9.69531,9.66407 -5.34766,0 -9.69532,-4.33204 -9.69532,-9.66407 0,-5.33203 4.34766,-9.66406 9.69532,-9.66406 1.11718,0 2.16797,0.22656 3.16406,0.57813 l 3.61719,-5.41016 h -46.03125 l -6.23047,28.99219 h 90.96094 z m -9.67578,-25.36719 -13.73047,20.53516 h 17.60156 z m -9.76563,-51.9414 h -7.6875 v 69.33593 l 16.18359,-24.1875 z m 4.43359,-9.66407 H 158.75 v 4.83203 h 48.48437 z M 184.51562,117.4375 h -3.04687 l -11.31641,9.66406 h 25.67969 z m 5.75,91.80469 h -9.69531 v -4.83203 h 9.69531 v -14.4961 h -9.69531 v -4.82812 h 9.69531 v -14.4961 h -9.69531 v -4.83203 h 9.69531 v -14.49609 h -9.69531 v -4.83203 h 9.69531 v -4.83203 h -14.54687 v 14.49609 h 9.69922 v 4.83203 h -9.69922 v 14.49609 h 9.69922 v 4.83204 h -9.69922 v 14.49218 h 9.69922 v 4.83203 h -9.69922 v 14.4961 h 14.54687 z m -7.27343,19.32812 c -2.66797,0 -4.84766,2.17188 -4.84766,4.83203 0,2.66016 2.17969,4.83203 4.84766,4.83203 2.67187,0 4.84765,-2.17187 4.84765,-4.83203 0,-2.66015 -2.17578,-4.83203 -4.84765,-4.83203 z m -33.44532,-14.49609 h 21.32422 v -72.47656 h -7.6875 z m 84.35157,-53.14844 c 0,-1.33203 -1.08985,-2.41797 -2.42578,-2.41797 -1.33204,0 -2.42188,1.08594 -2.42188,2.41797 0,1.32813 1.08984,2.41406 2.42188,2.41406 1.33593,0 2.42578,-1.08593 2.42578,-2.41406 z m -102.39063,91.80469 8.31641,-38.65625 h 4.80078 l 13.63281,-72.47656 h -4.35547 v -14.4961 h 8.79688 l 16.96875,-14.49609 h 6.64844 l 16.96875,14.49609 h 8.79687 v 14.4961 h -4.35547 l 7.41406,39.39062 10.52735,-15.74219 c -0.90625,-1.20703 -1.46485,-2.69922 -1.46485,-4.32031 0,-4.00391 3.25782,-7.25 7.26954,-7.25 0.61718,0 1.20312,0.0937 1.77343,0.24609 l 5.90625,-8.83203 4.03516,2.67969 -5.91016,8.83203 c 0.91016,1.20703 1.46875,2.69922 1.46875,4.32422 0,4 -3.25781,7.24609 -7.27343,7.24609 -0.61329,0 -1.19922,-0.0937 -1.76954,-0.24609 l -13.28515,19.85547 4.95312,26.29297 h 4.79297 l 8.3125,38.65625 h -10.27344 v 2.41406 c 0,4.00391 -3.25781,7.25 -7.27343,7.25 h -4.84766 c -4.00391,0 -7.27344,-3.24609 -7.27344,-7.25 v -2.41406 h -43.63281 v 2.41406 c 0,4.00391 -3.25781,7.25 -7.27344,7.25 h -4.84765 c -4.00391,0 -7.26953,-3.24609 -7.26953,-7.25 v -2.41406 h -10.27735"
         id="path7"
         inkscape:connector-curvature="0" />
    </g>
  </g>
</svg>
