<?xml version="1.0" encoding="UTF-8" standalone="no"?>
<svg
   xmlns:dc="http://purl.org/dc/elements/1.1/"
   xmlns:cc="http://creativecommons.org/ns#"
   xmlns:rdf="http://www.w3.org/1999/02/22-rdf-syntax-ns#"
   xmlns:svg="http://www.w3.org/2000/svg"
   xmlns="http://www.w3.org/2000/svg"
   xmlns:sodipodi="http://sodipodi.sourceforge.net/DTD/sodipodi-0.dtd"
   xmlns:inkscape="http://www.inkscape.org/namespaces/inkscape"
   width="200pt"
   height="160pt"
   viewBox="0 0 200 159.99999"
   version="1.2"
   id="svg18"
   sodipodi:docname="icone1.svg"
   inkscape:version="0.92.5 (2060ec1f9f, 2020-04-08)">
  <metadata
     id="metadata22">
    <rdf:RDF>
      <cc:Work
         rdf:about="">
        <dc:format>image/svg+xml</dc:format>
        <dc:type
           rdf:resource="http://purl.org/dc/dcmitype/StillImage" />
        <dc:title></dc:title>
      </cc:Work>
    </rdf:RDF>
  </metadata>
  <sodipodi:namedview
     pagecolor="#ffffff"
     bordercolor="#666666"
     borderopacity="1"
     objecttolerance="10"
     gridtolerance="10"
     guidetolerance="10"
     inkscape:pageopacity="0"
     inkscape:pageshadow="2"
     inkscape:window-width="1920"
     inkscape:window-height="1021"
     id="namedview20"
     showgrid="true"
     fit-margin-top="0"
     fit-margin-left="0"
     fit-margin-right="0"
     fit-margin-bottom="0"
     inkscape:zoom="1.888"
     inkscape:cx="44.086168"
     inkscape:cy="115.53025"
     inkscape:window-x="0"
     inkscape:window-y="27"
     inkscape:window-maximized="1"
     inkscape:current-layer="svg18">
    <inkscape:grid
       type="xygrid"
       id="grid14" />
  </sodipodi:namedview>
  <defs
     id="defs5">
    <clipPath
       id="clip1">
      <path
         d="m 112.5,138 h 150 v 109.125 h -150 z m 0,0"
         id="path2"
         inkscape:connector-curvature="0" />
    </clipPath>
  </defs>
  <g
     id="surface1"
     transform="translate(-86.13674,-107.58204)">
    <path
       style="fill:#f8c23d;fill-opacity:1;fill-rule:nonzero;stroke:none"
       d="m 164.30078,178.6875 c -0.92187,0.19922 -1.5,1.10547 -1.30469,2.02734 0.17188,0.79688 0.87891,1.34766 1.66016,1.34766 0.11719,0 0.24219,-0.0156 0.35937,-0.043 1.47266,-0.32031 2.9375,-0.60937 4.42188,-0.86328 0.92578,-0.16406 1.54687,-1.05078 1.38281,-1.96875 -0.16406,-0.92969 -1.0664,-1.57813 -1.96875,-1.38281 -1.51953,0.25781 -3.03515,0.55859 -4.55078,0.88281 z m 0,0"
       id="path7"
       inkscape:connector-curvature="0" />
    <path
       style="fill:#f8c23d;fill-opacity:1;fill-rule:nonzero;stroke:none"
       d="m 182.46094,154.07812 c -0.0508,-0.9375 -0.73438,-1.73828 -1.78125,-1.61328 -10.4375,0.53516 -20.80078,2.30469 -30.80078,5.26172 -0.90625,0.26563 -1.41797,1.21094 -1.15235,2.11328 0.21485,0.7461 0.89844,1.22266 1.63281,1.22266 0.16016,0 0.32813,-0.0273 0.48829,-0.0742 9.73437,-2.88281 19.83593,-4.60937 30.00781,-5.12891 0.9375,-0.0352 1.66015,-0.83984 1.60547,-1.78125 z m 0,0"
       id="path9"
       inkscape:connector-curvature="0" />
    <path
       style="fill:#f8c23d;fill-opacity:1;fill-rule:nonzero;stroke:none"
       d="m 136.33203,140.48047 c 0.19141,0 0.375,-0.0312 0.5625,-0.0937 17.67578,-6.17969 36.10938,-9.05469 54.84375,-8.52344 0.87109,-0.008 1.72266,-0.71875 1.75,-1.65625 0.0273,-0.9375 -0.71484,-1.72656 -1.65625,-1.75391 -19.11719,-0.51171 -37.98437,2.40235 -56.05078,8.71875 -0.89453,0.3086 -1.35938,1.27735 -1.05078,2.17188 0.24219,0.69922 0.89453,1.13672 1.60156,1.13672 z m 0,0"
       id="path11"
       inkscape:connector-curvature="0" />
    <g
       clip-path="url(#clip1)"
       id="g15"
       style="clip-rule:nonzero">
      <path
         style="fill:#f8c23d;fill-opacity:1;fill-rule:nonzero;stroke:none"
         d="m 187.38672,200.08203 c -7.62891,0 -15.23438,1.08984 -22.59375,3.13672 l 2.02344,2.96484 c 6.71484,-1.76562 13.63281,-2.69531 20.57031,-2.69531 29.11328,0 55.83594,15.40625 70.42969,40.39063 l -69.44922,-0.0117 -39.06641,-57.33985 c 2.54297,-2.29297 4.17188,-5.58203 4.17188,-9.26953 0,-6.91797 -5.6211,-12.54687 -12.54297,-12.54687 -2.00782,0 -3.88672,0.51562 -5.56641,1.35937 L 117.08203,139.2383 c -0.52734,-0.78125 -1.59375,-0.97656 -2.36719,-0.44531 -0.77734,0.52734 -0.97656,1.58984 -0.44921,2.36328 l 18.28515,26.83203 c -2.54297,2.29688 -4.17578,5.58594 -4.17578,9.27344 0,6.91797 5.62891,12.54687 12.55469,12.54687 2.0039,0 3.875,-0.51562 5.55859,-1.35547 l 37.75781,55.42188 -67.125,-0.0156 c 7.56641,-12.94921 18.48828,-23.49609 31.73438,-30.62109 2.5625,-1.37891 5.19531,-2.58984 7.88281,-3.67969 l -1.95703,-2.875 c -2.5625,1.07032 -5.08594,2.22657 -7.54688,3.55078 -14.68359,7.89844 -26.62109,19.83594 -34.52734,34.51954 -0.28515,0.52734 -0.26953,1.17187 0.0352,1.68359 0.3125,0.51172 0.86719,0.82812 1.46875,0.82812 l 146.50781,0.0195 c 0.0195,0 0.0469,0 0.0742,0 0.93359,0 1.70312,-0.76172 1.70312,-1.70313 0,-0.45703 -0.18359,-0.87109 -0.47656,-1.17969 -14.88281,-27.34765 -43.44141,-44.32031 -74.63281,-44.32031 z m -55.60547,-22.82031 c 0,-5.03906 4.10156,-9.14063 9.14844,-9.14063 5.03906,0 9.13672,4.09766 9.13672,9.14063 0,5.04297 -4.10157,9.14062 -9.13672,9.14062 -5.04297,-0.004 -9.14844,-4.10156 -9.14844,-9.14062 z m 0,0"
         id="path13"
         inkscape:connector-curvature="0" />
    </g>
  </g>
</svg>
