<?xml version="1.0" encoding="UTF-8"?>
<svg xmlns="http://www.w3.org/2000/svg" xmlns:xlink="http://www.w3.org/1999/xlink" width="375pt" height="374.999991pt" viewBox="0 0 375 374.999991" version="1.2">
<defs>
<clipPath id="clip1">
  <path d="M 131.8125 112.5 L 243.1875 112.5 L 243.1875 262.5 L 131.8125 262.5 Z M 131.8125 112.5 "/>
</clipPath>
</defs>
<g id="surface1">
<g clip-path="url(#clip1)" clip-rule="nonzero">
<path style=" stroke:none;fill-rule:nonzero;fill:rgb(97.24884%,76.078796%,24.308777%);fill-opacity:1;" d="M 146.632812 255.144531 C 146.632812 256.476562 147.71875 257.5625 149.054688 257.5625 L 153.902344 257.5625 C 155.238281 257.5625 156.328125 256.476562 156.328125 255.144531 L 156.328125 252.730469 L 146.632812 252.730469 Z M 209.65625 255.144531 C 209.65625 256.476562 210.746094 257.5625 212.082031 257.5625 L 216.929688 257.5625 C 218.265625 257.5625 219.355469 256.476562 219.355469 255.144531 L 219.355469 252.730469 L 209.65625 252.730469 Z M 222.242188 218.90625 L 195.605469 218.90625 L 190.199219 226.996094 C 191.734375 228.703125 192.6875 230.929688 192.6875 233.402344 C 192.6875 238.734375 188.34375 243.066406 182.992188 243.066406 C 177.644531 243.066406 173.296875 238.734375 173.296875 233.402344 C 173.296875 228.070312 177.644531 223.738281 182.992188 223.738281 C 184.109375 223.738281 185.160156 223.964844 186.15625 224.316406 L 189.773438 218.90625 L 143.742188 218.90625 L 137.511719 247.898438 L 228.472656 247.898438 Z M 212.566406 193.539062 L 198.835938 214.074219 L 216.4375 214.074219 Z M 202.800781 141.597656 L 195.113281 141.597656 L 195.113281 210.933594 L 211.296875 186.746094 Z M 207.234375 131.933594 L 158.75 131.933594 L 158.75 136.765625 L 207.234375 136.765625 Z M 184.515625 117.4375 L 181.46875 117.4375 L 170.152344 127.101562 L 195.832031 127.101562 Z M 190.265625 209.242188 L 180.570312 209.242188 L 180.570312 204.410156 L 190.265625 204.410156 L 190.265625 189.914062 L 180.570312 189.914062 L 180.570312 185.085938 L 190.265625 185.085938 L 190.265625 170.589844 L 180.570312 170.589844 L 180.570312 165.757812 L 190.265625 165.757812 L 190.265625 151.261719 L 180.570312 151.261719 L 180.570312 146.429688 L 190.265625 146.429688 L 190.265625 141.597656 L 175.71875 141.597656 L 175.71875 156.09375 L 185.417969 156.09375 L 185.417969 160.925781 L 175.71875 160.925781 L 175.71875 175.421875 L 185.417969 175.421875 L 185.417969 180.253906 L 175.71875 180.253906 L 175.71875 194.746094 L 185.417969 194.746094 L 185.417969 199.578125 L 175.71875 199.578125 L 175.71875 214.074219 L 190.265625 214.074219 Z M 182.992188 228.570312 C 180.324219 228.570312 178.144531 230.742188 178.144531 233.402344 C 178.144531 236.0625 180.324219 238.234375 182.992188 238.234375 C 185.664062 238.234375 187.839844 236.0625 187.839844 233.402344 C 187.839844 230.742188 185.664062 228.570312 182.992188 228.570312 Z M 149.546875 214.074219 L 170.871094 214.074219 L 170.871094 141.597656 L 163.183594 141.597656 Z M 233.898438 160.925781 C 233.898438 159.59375 232.808594 158.507812 231.472656 158.507812 C 230.140625 158.507812 229.050781 159.59375 229.050781 160.925781 C 229.050781 162.253906 230.140625 163.339844 231.472656 163.339844 C 232.808594 163.339844 233.898438 162.253906 233.898438 160.925781 Z M 131.507812 252.730469 L 139.824219 214.074219 L 144.625 214.074219 L 158.257812 141.597656 L 153.902344 141.597656 L 153.902344 127.101562 L 162.699219 127.101562 L 179.667969 112.605469 L 186.316406 112.605469 L 203.285156 127.101562 L 212.082031 127.101562 L 212.082031 141.597656 L 207.726562 141.597656 L 215.140625 180.988281 L 225.667969 165.246094 C 224.761719 164.039062 224.203125 162.546875 224.203125 160.925781 C 224.203125 156.921875 227.460938 153.675781 231.472656 153.675781 C 232.089844 153.675781 232.675781 153.769531 233.246094 153.921875 L 239.152344 145.089844 L 243.1875 147.769531 L 237.277344 156.601562 C 238.1875 157.808594 238.746094 159.300781 238.746094 160.925781 C 238.746094 164.925781 235.488281 168.171875 231.472656 168.171875 C 230.859375 168.171875 230.273438 168.078125 229.703125 167.925781 L 216.417969 187.78125 L 221.371094 214.074219 L 226.164062 214.074219 L 234.476562 252.730469 L 224.203125 252.730469 L 224.203125 255.144531 C 224.203125 259.148438 220.945312 262.394531 216.929688 262.394531 L 212.082031 262.394531 C 208.078125 262.394531 204.808594 259.148438 204.808594 255.144531 L 204.808594 252.730469 L 161.175781 252.730469 L 161.175781 255.144531 C 161.175781 259.148438 157.917969 262.394531 153.902344 262.394531 L 149.054688 262.394531 C 145.050781 262.394531 141.785156 259.148438 141.785156 255.144531 L 141.785156 252.730469 L 131.507812 252.730469 "/>
</g>
</g>
</svg>
