<?xml version="1.0" encoding="UTF-8"?>
<svg xmlns="http://www.w3.org/2000/svg" xmlns:xlink="http://www.w3.org/1999/xlink" width="375pt" height="374.999991pt" viewBox="0 0 375 374.999991" version="1.2">
<defs>
<clipPath id="clip1">
  <path d="M 112.5 138 L 262.5 138 L 262.5 247.125 L 112.5 247.125 Z M 112.5 138 "/>
</clipPath>
</defs>
<g id="surface1">
<path style=" stroke:none;fill-rule:nonzero;fill:rgb(97.24884%,76.078796%,24.308777%);fill-opacity:1;" d="M 164.300781 178.6875 C 163.378906 178.886719 162.800781 179.792969 162.996094 180.714844 C 163.167969 181.511719 163.875 182.0625 164.65625 182.0625 C 164.773438 182.0625 164.898438 182.046875 165.015625 182.019531 C 166.488281 181.699219 167.953125 181.410156 169.4375 181.15625 C 170.363281 180.992188 170.984375 180.105469 170.820312 179.1875 C 170.65625 178.257812 169.753906 177.609375 168.851562 177.804688 C 167.332031 178.0625 165.816406 178.363281 164.300781 178.6875 Z M 164.300781 178.6875 "/>
<path style=" stroke:none;fill-rule:nonzero;fill:rgb(97.24884%,76.078796%,24.308777%);fill-opacity:1;" d="M 182.460938 154.078125 C 182.410156 153.140625 181.726562 152.339844 180.679688 152.464844 C 170.242188 153 159.878906 154.769531 149.878906 157.726562 C 148.972656 157.992188 148.460938 158.9375 148.726562 159.839844 C 148.941406 160.585938 149.625 161.0625 150.359375 161.0625 C 150.519531 161.0625 150.6875 161.035156 150.847656 160.988281 C 160.582031 158.105469 170.683594 156.378906 180.855469 155.859375 C 181.792969 155.824219 182.515625 155.019531 182.460938 154.078125 Z M 182.460938 154.078125 "/>
<path style=" stroke:none;fill-rule:nonzero;fill:rgb(97.24884%,76.078796%,24.308777%);fill-opacity:1;" d="M 136.332031 140.480469 C 136.523438 140.480469 136.707031 140.449219 136.894531 140.386719 C 154.570312 134.207031 173.003906 131.332031 191.738281 131.863281 C 192.609375 131.855469 193.460938 131.144531 193.488281 130.207031 C 193.515625 129.269531 192.773438 128.480469 191.832031 128.453125 C 172.714844 127.941406 153.847656 130.855469 135.78125 137.171875 C 134.886719 137.480469 134.421875 138.449219 134.730469 139.34375 C 134.972656 140.042969 135.625 140.480469 136.332031 140.480469 Z M 136.332031 140.480469 "/>
<g clip-path="url(#clip1)" clip-rule="nonzero">
<path style=" stroke:none;fill-rule:nonzero;fill:rgb(97.24884%,76.078796%,24.308777%);fill-opacity:1;" d="M 187.386719 200.082031 C 179.757812 200.082031 172.152344 201.171875 164.792969 203.21875 L 166.816406 206.183594 C 173.53125 204.417969 180.449219 203.488281 187.386719 203.488281 C 216.5 203.488281 243.222656 218.894531 257.816406 243.878906 L 188.367188 243.867188 L 149.300781 186.527344 C 151.84375 184.234375 153.472656 180.945312 153.472656 177.257812 C 153.472656 170.339844 147.851562 164.710938 140.929688 164.710938 C 138.921875 164.710938 137.042969 165.226562 135.363281 166.070312 L 117.082031 139.238281 C 116.554688 138.457031 115.488281 138.261719 114.714844 138.792969 C 113.9375 139.320312 113.738281 140.382812 114.265625 141.15625 L 132.550781 167.988281 C 130.007812 170.285156 128.375 173.574219 128.375 177.261719 C 128.375 184.179688 134.003906 189.808594 140.929688 189.808594 C 142.933594 189.808594 144.804688 189.292969 146.488281 188.453125 L 184.246094 243.875 L 117.121094 243.859375 C 124.6875 230.910156 135.609375 220.363281 148.855469 213.238281 C 151.417969 211.859375 154.050781 210.648438 156.738281 209.558594 L 154.78125 206.683594 C 152.21875 207.753906 149.695312 208.910156 147.234375 210.234375 C 132.550781 218.132812 120.613281 230.070312 112.707031 244.753906 C 112.421875 245.28125 112.4375 245.925781 112.742188 246.4375 C 113.054688 246.949219 113.609375 247.265625 114.210938 247.265625 L 260.71875 247.285156 C 260.738281 247.285156 260.765625 247.285156 260.792969 247.285156 C 261.726562 247.285156 262.496094 246.523438 262.496094 245.582031 C 262.496094 245.125 262.3125 244.710938 262.019531 244.402344 C 247.136719 217.054688 218.578125 200.082031 187.386719 200.082031 Z M 131.78125 177.261719 C 131.78125 172.222656 135.882812 168.121094 140.929688 168.121094 C 145.96875 168.121094 150.066406 172.21875 150.066406 177.261719 C 150.066406 182.304688 145.964844 186.402344 140.929688 186.402344 C 135.886719 186.398438 131.78125 182.300781 131.78125 177.261719 Z M 131.78125 177.261719 "/>
</g>
</g>
</svg>
