<svg width="30" height="30" viewBox="0 0 30 30" fill="none" xmlns="http://www.w3.org/2000/svg">
<path d="M4.39453 26.4258H25.6055C28.0286 26.4258 30 24.4544 30 22.0312V7.96875C30 5.54558 28.0286 3.57422 25.6055 3.57422H4.39453C1.97136 3.57422 0 5.54558 0 7.96875V22.0312C0 24.4544 1.97136 26.4258 4.39453 26.4258ZM1.75781 7.96875C1.75781 6.51489 2.94067 5.33203 4.39453 5.33203H25.6055C27.0593 5.33203 28.2422 6.51489 28.2422 7.96875V22.0312C28.2422 23.4851 27.0593 24.668 25.6055 24.668H4.39453C2.94067 24.668 1.75781 23.4851 1.75781 22.0312V7.96875Z" fill="#F8C23E"/>
<path d="M10.6055 9.11182V21.059L21.1816 14.9874L10.6055 9.11182ZM12.3633 12.0992L17.6074 15.0126L12.3633 18.0231V12.0992Z" fill="#F8C23E"/>
</svg>
